<svg 
    xmlns="http://www.w3.org/2000/svg" 
    xmlns:xlink="http://www.w3.org/1999/xlink" 
    viewBox="0 0 512 512"
    >

    <defs>
        <style>.a7a03322-b58d-44e1-88a4-dca3b72108cf{fill:url(#f0e3878a-8974-43d3-b71d-9ff0a762e368);}</style>
        <linearGradient id="f0e3878a-8974-43d3-b71d-9ff0a762e368" y1="241.01" x2="361" y2="241.01" gradientUnits="userSpaceOnUse">
            <stop offset="0" stop-color="#1b7cff"/><stop offset="1" stop-color="#00a2ff"/>
        </linearGradient>
    </defs>
    
    <title>Brocorp SAS</title>
    <g id="bca2d89c-4d66-44f6-824b-b895c77a31af">
        <g id="f2c93cfd-be9d-492d-b138-117f73ab72e6">
            <path class="a7a03322-b58d-44e1-88a4-dca3b72108cf" d="M174.19,71.46,144.41,88.65A12.82,12.82,0,0,0,138,99.75v49.63a12.81,12.81,0,0,0,19.22,11.1l16.22-9.36a12.82,12.82,0,0,1,12.82,0l98.33,56.77A12.81,12.81,0,0,1,291,219V332.18a12.81,12.81,0,0,1-6.41,11.1l-98.68,57a12.82,12.82,0,0,1-12.82,0l-98.68-57A12.81,12.81,0,0,1,68,332.18L68,12.83A12.82,12.82,0,0,0,49.1,1.54L6.75,24.27A12.85,12.85,0,0,0,0,35.57V372.39a12.81,12.81,0,0,0,6.41,11.1L174.09,480.3a12.82,12.82,0,0,0,12.82,0l167.68-96.81a12.81,12.81,0,0,0,6.41-11.1V179.32a12.81,12.81,0,0,0-6.41-11.1L187,71.46A12.8,12.8,0,0,0,174.19,71.46Z"/>
        </g>
    </g>
</svg>