<svg xmlns="http://www.w3.org/2000/svg" xmlns:xlink="http://www.w3.org/1999/xlink" viewBox="0 0 513.01 513.01"><defs><style>.a9186fc1-2932-4aa8-8ae8-597b33ab05d7{fill:#fff;}.e150ef25-abc5-4efa-a436-98add56e50f7{fill:url(#ff2e7ba2-0ce8-4d3b-ac0f-f7a785c07fb2);}</style><linearGradient id="ff2e7ba2-0ce8-4d3b-ac0f-f7a785c07fb2" x1="75.5" y1="257" x2="436.5" y2="257" gradientUnits="userSpaceOnUse"><stop offset="0" stop-color="#1b7cff"/><stop offset="1" stop-color="#00a2ff"/></linearGradient></defs><title>Logo-Square</title><g id="b2fa802b-494e-4545-b3f5-1312a4a406aa" data-name="Calque 2"><g id="fa4176f5-6f03-4159-a0aa-8e3fa3735654" data-name="Calque 1"><rect class="a9186fc1-2932-4aa8-8ae8-597b33ab05d7" width="513.01" height="513.01"/><path class="e150ef25-abc5-4efa-a436-98add56e50f7" d="M249.69,87.45l-29.78,17.19a12.81,12.81,0,0,0-6.41,11.1v49.63a12.81,12.81,0,0,0,19.22,11.1l16.22-9.36a12.82,12.82,0,0,1,12.82,0l98.33,56.77A12.81,12.81,0,0,1,366.5,235V348.17a12.81,12.81,0,0,1-6.41,11.1l-98.68,57a12.82,12.82,0,0,1-12.82,0l-98.68-57a12.81,12.81,0,0,1-6.41-11.1l0-319.35A12.82,12.82,0,0,0,124.6,17.53L82.25,40.26a12.85,12.85,0,0,0-6.75,11.3V388.38a12.81,12.81,0,0,0,6.41,11.1l167.68,96.81a12.82,12.82,0,0,0,12.82,0l167.68-96.81a12.81,12.81,0,0,0,6.41-11.1V195.31a12.81,12.81,0,0,0-6.41-11.1L262.5,87.45A12.8,12.8,0,0,0,249.69,87.45Z"/></g></g></svg>